<svg xmlns="http://www.w3.org/2000/svg" version="1.1" xmlns:xlink="http://www.w3.org/1999/xlink" xmlns:svgjs="http://svgjs.dev/svgjs" width="1500" height="1500" viewBox="0 0 1500 1500"><rect width="1500" height="1500" fill="#ffffff"></rect><g transform="matrix(0.6666666666666666,0,0,0.6666666666666666,249.39393939393932,657.70196868973)"><svg viewBox="0 0 396 73" data-background-color="#ffffff" preserveAspectRatio="xMidYMid meet" height="276" width="1500" xmlns="http://www.w3.org/2000/svg" xmlns:xlink="http://www.w3.org/1999/xlink"><g id="tight-bounds" transform="matrix(1,0,0,1,0.24000000000003752,0.1182406828788487)"><svg viewBox="0 0 395.5199999999999 72.7635186342423" height="72.7635186342423" width="395.5199999999999"><g><svg viewBox="0 0 497.0857802918481 91.44849928469552" height="72.7635186342423" width="395.5199999999999"><g transform="matrix(1,0,0,1,0,12.638685501719863)"><svg viewBox="0 0 395.5199999999999 66.17112828125579" height="66.17112828125579" width="395.5199999999999"><g id="textblocktransform"><svg viewBox="0 0 395.5199999999999 66.17112828125579" height="66.17112828125579" width="395.5199999999999" id="textblock"><g><svg viewBox="0 0 395.5199999999999 42.85603368047861" height="42.85603368047861" width="395.5199999999999"><g transform="matrix(1,0,0,1,0,0)"><svg width="395.5199999999999" viewBox="4.79 -33.33 313.37 33.96" height="42.85603368047861" data-palette-color="#000000"><path d="M8.75 0L4.79 0 4.79-31.25 8.75-31.25 8.75 0ZM25.8 0.28L25.8 0.28Q22.95 0.28 20.59-1.16 18.23-2.6 16.82-5.03 15.41-7.47 15.41-10.42L15.41-10.42Q15.41-13.37 16.82-15.8 18.23-18.23 20.59-19.67 22.95-21.11 25.8-21.11L25.8-21.11Q27.84-21.11 29.65-20.38 31.46-19.65 32.84-18.37L32.84-18.37 32.84-33.33 36.59-33.33 36.59 0 33.12 0 33.12-2.74Q31.73-1.35 29.84-0.54 27.95 0.28 25.8 0.28ZM26.28-3.13L26.28-3.13Q28.26-3.13 29.88-4.11 31.49-5.1 32.45-6.75 33.4-8.4 33.4-10.42L33.4-10.42Q33.4-12.43 32.45-14.08 31.49-15.73 29.88-16.72 28.26-17.71 26.28-17.71L26.28-17.71Q24.3-17.71 22.69-16.72 21.07-15.73 20.12-14.08 19.16-12.43 19.16-10.42L19.16-10.42Q19.16-8.4 20.12-6.75 21.07-5.1 22.69-4.11 24.3-3.13 26.28-3.13ZM53.19 0.42L53.19 0.42Q49.93 0.42 47.34-1.04 44.75-2.5 43.28-5.02 41.8-7.53 41.8-10.63L41.8-10.63Q41.8-13.58 43.22-15.99 44.65-18.4 47.06-19.83 49.47-21.25 52.39-21.25L52.39-21.25Q55.27-21.25 57.67-19.88 60.06-18.51 61.49-16.18 62.91-13.85 62.91-10.9L62.91-10.9 62.91-9.38 49.3-9.38Q48.4-9.38 47.46-9.44 46.52-9.51 45.62-9.65L45.62-9.65Q46-6.88 48.14-5 50.27-3.13 53.22-3.13L53.22-3.13Q55.2-3.13 56.9-4.03 58.61-4.93 59.65-6.42L59.65-6.42 60.69-2.15Q59.2-0.94 57.27-0.26 55.34 0.42 53.19 0.42ZM45.52-12.19L45.52-12.19Q47.39-12.5 49.3-12.5L49.3-12.5 56.21-12.5Q56.97-12.5 57.72-12.45 58.47-12.4 59.23-12.33L59.23-12.33Q58.75-14.76 56.8-16.34 54.86-17.92 52.39-17.92L52.39-17.92Q49.86-17.92 47.95-16.23 46.04-14.55 45.52-12.19ZM76.83 0.28L76.83 0.28Q73.99 0.28 71.62-1.16 69.26-2.6 67.86-5.03 66.45-7.47 66.45-10.42L66.45-10.42Q66.45-13.37 67.86-15.8 69.26-18.23 71.62-19.67 73.99-21.11 76.83-21.11L76.83-21.11Q78.99-21.11 80.88-20.31 82.77-19.51 84.16-18.09L84.16-18.09 84.16-20.83 87.63-20.83 87.63 0 84.16 0 84.16-2.74Q82.77-1.35 80.88-0.54 78.99 0.28 76.83 0.28ZM77.32-3.13L77.32-3.13Q79.3-3.13 80.91-4.11 82.53-5.1 83.48-6.75 84.44-8.4 84.44-10.42L84.44-10.42Q84.44-12.43 83.48-14.08 82.53-15.73 80.91-16.72 79.3-17.71 77.32-17.71L77.32-17.71Q75.34-17.71 73.73-16.72 72.11-15.73 71.16-14.08 70.2-12.43 70.2-10.42L70.2-10.42Q70.2-8.4 71.16-6.75 72.11-5.1 73.73-4.11 75.34-3.13 77.32-3.13ZM99.68 0.42L99.68 0.42Q98.08 0.42 96.26-0.19 94.43-0.8 93.12-2.22L93.12-2.22 94.16-6.32Q95.13-4.69 96.66-3.73 98.18-2.78 99.92-2.78L99.92-2.78Q101.59-2.78 102.42-3.59 103.25-4.41 103.25-5.59L103.25-5.59Q103.25-6.94 102.37-7.57 101.48-8.19 100.79-8.44L100.79-8.44 97.98-9.51Q97.21-9.83 96.14-10.43 95.06-11.04 94.26-12.19 93.46-13.33 93.46-15.17L93.46-15.17Q93.46-16.84 94.26-18.23 95.06-19.62 96.52-20.43 97.98-21.25 99.96-21.25L99.96-21.25Q101.52-21.25 103.22-20.69 104.92-20.14 106.1-18.82L106.1-18.82 105.06-14.72Q104.23-16.25 102.8-17.15 101.38-18.06 99.85-18.06L99.85-18.06Q98.43-18.06 97.61-17.26 96.8-16.46 96.8-15.42L96.8-15.42Q96.8-14.58 97.35-13.92 97.91-13.26 99.02-12.85L99.02-12.85 101.83-11.77Q102.59-11.49 103.72-10.87 104.85-10.24 105.72-9.06 106.59-7.88 106.59-5.87L106.59-5.87Q106.59-3.06 104.63-1.32 102.66 0.42 99.68 0.42ZM137.49 0.63L137.49 0.63Q134.12 0.63 131.15-0.64 128.18-1.91 125.94-4.13 123.7-6.35 122.43-9.31 121.17-12.26 121.17-15.63L121.17-15.63Q121.17-18.99 122.43-21.94 123.7-24.9 125.94-27.12 128.18-29.34 131.15-30.61 134.12-31.88 137.49-31.88L137.49-31.88Q140.82-31.88 143.74-30.64 146.65-29.41 148.87-27.26L148.87-27.26 147.73-22.47Q146.13-25.03 143.44-26.58 140.75-28.13 137.49-28.13L137.49-28.13Q134.05-28.13 131.29-26.44 128.53-24.76 126.89-21.93 125.26-19.1 125.26-15.63L125.26-15.63Q125.26-12.19 126.89-9.34 128.53-6.49 131.29-4.81 134.05-3.13 137.49-3.13L137.49-3.13Q140.78-3.13 143.46-4.69 146.13-6.25 147.73-8.78L147.73-8.78 148.87-3.99Q146.65-1.88 143.74-0.63 140.82 0.63 137.49 0.63ZM163.18 0.42L163.18 0.42Q160.16 0.42 157.66-1.04 155.16-2.5 153.68-4.97 152.2-7.43 152.2-10.42L152.2-10.42Q152.2-13.44 153.68-15.89 155.16-18.33 157.66-19.79 160.16-21.25 163.18-21.25L163.18-21.25Q166.23-21.25 168.72-19.79 171.2-18.33 172.67-15.89 174.15-13.44 174.15-10.42L174.15-10.42Q174.15-7.43 172.67-4.97 171.2-2.5 168.72-1.04 166.23 0.42 163.18 0.42ZM163.18-3.13L163.18-3.13Q165.19-3.13 166.82-4.11 168.45-5.1 169.43-6.75 170.4-8.4 170.4-10.42L170.4-10.42Q170.4-12.43 169.43-14.08 168.45-15.73 166.82-16.72 165.19-17.71 163.18-17.71L163.18-17.71Q161.16-17.71 159.53-16.72 157.9-15.73 156.93-14.08 155.95-12.43 155.95-10.42L155.95-10.42Q155.95-8.4 156.93-6.75 157.9-5.1 159.53-4.11 161.16-3.13 163.18-3.13ZM183.11 0L179.36 0 179.36-20.83 182.83-20.83 182.83-17.47Q183.97-19.31 185.8-20.28 187.62-21.25 189.74-21.25L189.74-21.25Q191.96-21.25 193.85-20.16 195.74-19.06 196.92-17 198.11-14.93 198.11-11.98L198.11-11.98 198.11 0 194.36 0 194.36-11.46Q194.36-13.92 192.88-15.82 191.4-17.71 188.73-17.71L188.73-17.71Q186.54-17.71 184.82-16.13 183.11-14.55 183.11-11.56L183.11-11.56 183.11 0ZM210.53 0L206.78 0 206.78-17.71 202.06-17.71 202.06-20.83 206.89-20.83 206.89-27.78 210.43-27.78 210.43-20.83 215.6-20.83 215.6-17.71 210.53-17.71 210.53 0ZM228.9 0.28L228.9 0.28Q226.05 0.28 223.69-1.16 221.33-2.6 219.92-5.03 218.52-7.47 218.52-10.42L218.52-10.42Q218.52-13.37 219.92-15.8 221.33-18.23 223.69-19.67 226.05-21.11 228.9-21.11L228.9-21.11Q231.05-21.11 232.94-20.31 234.84-19.51 236.23-18.09L236.23-18.09 236.23-20.83 239.7-20.83 239.7 0 236.23 0 236.23-2.74Q234.84-1.35 232.94-0.54 231.05 0.28 228.9 0.28ZM229.38-3.13L229.38-3.13Q231.36-3.13 232.98-4.11 234.59-5.1 235.55-6.75 236.5-8.4 236.5-10.42L236.5-10.42Q236.5-12.43 235.55-14.08 234.59-15.73 232.98-16.72 231.36-17.71 229.38-17.71L229.38-17.71Q227.41-17.71 225.79-16.72 224.18-15.73 223.22-14.08 222.27-12.43 222.27-10.42L222.27-10.42Q222.27-8.4 223.22-6.75 224.18-5.1 225.79-4.11 227.41-3.13 229.38-3.13ZM250.11 0L246.36 0 246.36-20.83 250.11-20.83 250.11 0ZM248.24-24.58L248.24-24.58Q247.19-24.58 246.47-25.31 245.74-26.04 245.74-27.08L245.74-27.08Q245.74-28.16 246.47-28.87 247.19-29.58 248.24-29.58L248.24-29.58Q249.31-29.58 250.02-28.87 250.74-28.16 250.74-27.08L250.74-27.08Q250.74-26.04 250.02-25.31 249.31-24.58 248.24-24.58ZM260.53 0L256.78 0 256.78-20.83 260.25-20.83 260.25-17.47Q261.39-19.31 263.22-20.28 265.04-21.25 267.16-21.25L267.16-21.25Q269.38-21.25 271.27-20.16 273.16-19.06 274.35-17 275.53-14.93 275.53-11.98L275.53-11.98 275.53 0 271.78 0 271.78-11.46Q271.78-13.92 270.3-15.82 268.82-17.71 266.15-17.71L266.15-17.71Q263.96-17.71 262.24-16.13 260.53-14.55 260.53-11.56L260.53-11.56 260.53 0ZM291.7 0.42L291.7 0.42Q288.44 0.42 285.85-1.04 283.27-2.5 281.79-5.02 280.31-7.53 280.31-10.63L280.31-10.63Q280.31-13.58 281.74-15.99 283.16-18.4 285.58-19.83 287.99-21.25 290.91-21.25L290.91-21.25Q293.79-21.25 296.18-19.88 298.58-18.51 300-16.18 301.43-13.85 301.43-10.9L301.43-10.9 301.43-9.38 287.81-9.38Q286.91-9.38 285.97-9.44 285.04-9.51 284.13-9.65L284.13-9.65Q284.52-6.88 286.65-5 288.79-3.13 291.74-3.13L291.74-3.13Q293.72-3.13 295.42-4.03 297.12-4.93 298.16-6.42L298.16-6.42 299.2-2.15Q297.71-0.94 295.78-0.26 293.86 0.42 291.7 0.42ZM284.03-12.19L284.03-12.19Q285.91-12.5 287.81-12.5L287.81-12.5 294.72-12.5Q295.49-12.5 296.23-12.45 296.98-12.4 297.75-12.33L297.75-12.33Q297.26-14.76 295.31-16.34 293.37-17.92 290.91-17.92L290.91-17.92Q288.37-17.92 286.46-16.23 284.55-14.55 284.03-12.19ZM310.17 0L306.42 0 306.42-20.83 309.9-20.83 309.9-17.01Q311.01-18.85 312.85-19.95 314.69-21.04 317.22-21.04L317.22-21.04 318.16-17.29Q317.5-17.5 316.63-17.5L316.63-17.5Q313.72-17.5 311.94-15.64 310.17-13.78 310.17-10.35L310.17-10.35 310.17 0Z" opacity="1" transform="matrix(1,0,0,1,0,0)" fill="#000000" class="wordmark-text-0" data-fill-palette-color="primary" id="text-0"></path></svg></g></svg></g><g transform="matrix(1,0,0,1,163.310208,52.97331468763128)"><svg viewBox="0 0 232.20979199999994 13.19781359362451" height="13.19781359362451" width="232.20979199999994"><g transform="matrix(1,0,0,1,0,0)"><svg width="232.20979199999994" viewBox="1.4 -36 809.27 46" height="13.19781359362451" data-palette-color="#556970"><path d="M24.25-29L15.65 0 11.25 0 1.4-35 5.65-35 13.45-4.85 22.05-35 26.5-35 35.05-4.9 42.9-35 47.1-35 37.25 0 32.85 0 24.25-29ZM61.4 0.35L61.4 0.35Q57.9 0.35 55.17-1.35 52.45-3.05 50.9-6 49.35-8.95 49.35-12.75L49.35-12.75Q49.35-16.4 50.9-19.25 52.45-22.1 55.15-23.73 57.85-25.35 61.3-25.35L61.3-25.35Q64.7-25.35 67.37-23.85 70.05-22.35 71.55-19.7 73.05-17.05 72.95-13.65L72.95-13.65Q72.95-13.1 72.9-12.5 72.85-11.9 72.8-11.2L72.8-11.2 53.45-11.2Q53.55-8.85 54.6-7.05 55.65-5.25 57.37-4.23 59.1-3.2 61.3-3.2L61.3-3.2Q64.2-3.2 66.22-4.3 68.25-5.4 69.15-7.45L69.15-7.45 72.4-6.15Q70.9-3 68.05-1.33 65.2 0.35 61.4 0.35ZM53.5-14.45L68.85-14.45Q68.9-16.6 67.92-18.25 66.95-19.9 65.2-20.85 63.45-21.8 61.15-21.8L61.15-21.8Q59.15-21.8 57.5-20.85 55.85-19.9 54.77-18.23 53.7-16.55 53.5-14.45L53.5-14.45ZM112.19 0L108.74 0 108.44-4.5Q107.39-2.2 105.34-0.93 103.29 0.35 100.14 0.35L100.14 0.35Q97.44 0.35 95.54-0.5 93.64-1.35 92.62-2.93 91.59-4.5 91.59-6.65L91.59-6.65Q91.59-9.8 93.94-11.83 96.29-13.85 100.74-14.3L100.74-14.3 108.44-15.15 108.44-17.15Q108.44-19.25 106.89-20.53 105.34-21.8 102.69-21.8L102.69-21.8Q100.09-21.8 98.37-20.6 96.64-19.4 95.99-17.15L95.99-17.15 92.59-18.35Q93.59-21.65 96.27-23.5 98.94-25.35 102.79-25.35L102.79-25.35Q107.24-25.35 109.72-23.08 112.19-20.8 112.19-16.9L112.19-16.9 112.19 0ZM108.44-11.15L108.44-11.95 100.69-11.05Q98.19-10.75 96.89-9.68 95.59-8.6 95.59-6.85L95.59-6.85Q95.59-5.1 96.87-4.05 98.14-3 100.54-3L100.54-3Q103.29-3 105.04-4.1 106.79-5.2 107.62-7.08 108.44-8.95 108.44-11.15L108.44-11.15ZM119.49 0L119.49-25 122.94-25 123.14-21.35Q124.14-22.7 125.57-23.65 126.99-24.6 128.72-24.98 130.44-25.35 132.39-25L132.39-25 132.39-21.25Q130.29-21.65 128.62-21.25 126.94-20.85 125.74-19.75 124.54-18.65 123.89-16.98 123.24-15.3 123.24-13.1L123.24-13.1 123.24 0 119.49 0ZM147.49 0.35L147.49 0.35Q143.99 0.35 141.26-1.35 138.54-3.05 136.99-6 135.44-8.95 135.44-12.75L135.44-12.75Q135.44-16.4 136.99-19.25 138.54-22.1 141.24-23.73 143.94-25.35 147.39-25.35L147.39-25.35Q150.79-25.35 153.46-23.85 156.14-22.35 157.64-19.7 159.14-17.05 159.04-13.65L159.04-13.65Q159.04-13.1 158.99-12.5 158.94-11.9 158.89-11.2L158.89-11.2 139.54-11.2Q139.64-8.85 140.69-7.05 141.74-5.25 143.46-4.23 145.19-3.2 147.39-3.2L147.39-3.2Q150.29-3.2 152.31-4.3 154.34-5.4 155.24-7.45L155.24-7.45 158.49-6.15Q156.99-3 154.14-1.33 151.29 0.35 147.49 0.35ZM139.59-14.45L154.94-14.45Q154.99-16.6 154.01-18.25 153.04-19.9 151.29-20.85 149.54-21.8 147.24-21.8L147.24-21.8Q145.24-21.8 143.59-20.85 141.94-19.9 140.86-18.23 139.79-16.55 139.59-14.45L139.59-14.45ZM177.03-25L180.78-25 180.78-32 184.53-32 184.53-25 191.18-25 191.18-21.5 184.53-21.5 184.53-8.05Q184.53-5.75 185.51-4.7 186.48-3.65 188.01-3.45 189.53-3.25 191.18-3.45L191.18-3.45 191.18-0.2Q189.23 0.25 187.36 0.05 185.48-0.15 184.01-1.07 182.53-2 181.66-3.7 180.78-5.4 180.78-8.05L180.78-8.05 180.78-21.5 177.03-21.5 177.03-25ZM196.78 0L196.78-36 200.53-36 200.53-21.6Q201.73-23.4 203.78-24.38 205.83-25.35 208.38-25.35L208.38-25.35Q211.13-25.35 213.28-24.1 215.43-22.85 216.66-20.4 217.88-17.95 217.88-14.3L217.88-14.3 217.88 0 213.88 0 213.88-13.85Q213.88-17.75 212.23-19.83 210.58-21.9 207.43-21.9L207.43-21.9Q204.18-21.9 202.36-19.7 200.53-17.5 200.53-13.3L200.53-13.3 200.53 0 196.78 0ZM235.63 0.35L235.63 0.35Q232.13 0.35 229.4-1.35 226.68-3.05 225.13-6 223.58-8.95 223.58-12.75L223.58-12.75Q223.58-16.4 225.13-19.25 226.68-22.1 229.38-23.73 232.08-25.35 235.53-25.35L235.53-25.35Q238.93-25.35 241.6-23.85 244.28-22.35 245.78-19.7 247.28-17.05 247.18-13.65L247.18-13.65Q247.18-13.1 247.13-12.5 247.08-11.9 247.03-11.2L247.03-11.2 227.68-11.2Q227.78-8.85 228.83-7.05 229.88-5.25 231.6-4.23 233.33-3.2 235.53-3.2L235.53-3.2Q238.43-3.2 240.45-4.3 242.48-5.4 243.38-7.45L243.38-7.45 246.63-6.15Q245.13-3 242.28-1.33 239.43 0.35 235.63 0.35ZM227.73-14.45L243.08-14.45Q243.13-16.6 242.15-18.25 241.18-19.9 239.43-20.85 237.68-21.8 235.38-21.8L235.38-21.8Q233.38-21.8 231.73-20.85 230.08-19.9 229-18.23 227.93-16.55 227.73-14.45L227.73-14.45ZM271.07-19.9L270.67-19.95Q271.77-22.25 274.12-23.8 276.47-25.35 280.07-25.35L280.07-25.35Q283.52-25.35 286.1-23.75 288.67-22.15 290.1-19.28 291.52-16.4 291.52-12.5L291.52-12.5Q291.52-8.6 290.07-5.7 288.62-2.8 286.05-1.23 283.47 0.35 280.07 0.35L280.07 0.35Q276.67 0.35 274.42-1.1 272.17-2.55 271.02-4.65L271.02-4.65 270.77 0 267.32 0 267.32-36 271.07-36 271.07-19.9ZM287.47-12.5L287.47-12.5Q287.47-16.8 285.25-19.33 283.02-21.85 279.27-21.85L279.27-21.85Q276.92-21.85 275.05-20.73 273.17-19.6 272.12-17.53 271.07-15.45 271.07-12.5L271.07-12.5Q271.07-9.55 272.12-7.45 273.17-5.35 275.05-4.25 276.92-3.15 279.27-3.15L279.27-3.15Q283.02-3.15 285.25-5.68 287.47-8.2 287.47-12.5ZM308.12 0.35L308.12 0.35Q304.62 0.35 301.9-1.35 299.17-3.05 297.62-6 296.07-8.95 296.07-12.75L296.07-12.75Q296.07-16.4 297.62-19.25 299.17-22.1 301.87-23.73 304.57-25.35 308.02-25.35L308.02-25.35Q311.42-25.35 314.1-23.85 316.77-22.35 318.27-19.7 319.77-17.05 319.67-13.65L319.67-13.65Q319.67-13.1 319.62-12.5 319.57-11.9 319.52-11.2L319.52-11.2 300.17-11.2Q300.27-8.85 301.32-7.05 302.37-5.25 304.1-4.23 305.82-3.2 308.02-3.2L308.02-3.2Q310.92-3.2 312.95-4.3 314.97-5.4 315.87-7.45L315.87-7.45 319.12-6.15Q317.62-3 314.77-1.33 311.92 0.35 308.12 0.35ZM300.22-14.45L315.57-14.45Q315.62-16.6 314.65-18.25 313.67-19.9 311.92-20.85 310.17-21.8 307.87-21.8L307.87-21.8Q305.87-21.8 304.22-20.85 302.57-19.9 301.5-18.23 300.42-16.55 300.22-14.45L300.22-14.45ZM324.27-6.45L327.87-7.65Q328.17-6.15 328.97-5.18 329.77-4.2 331.04-3.7 332.32-3.2 334.02-3.2L334.02-3.2Q336.67-3.2 338.04-4.23 339.42-5.25 339.42-6.8L339.42-6.8Q339.42-8.1 338.59-8.9 337.77-9.7 336.42-10.23 335.07-10.75 333.42-11.15L333.42-11.15Q332.12-11.45 330.62-11.88 329.12-12.3 327.77-13.05 326.42-13.8 325.57-15 324.72-16.2 324.72-18.15L324.72-18.15Q324.72-20.3 325.89-21.93 327.07-23.55 329.14-24.45 331.22-25.35 333.92-25.35L333.92-25.35Q337.02-25.35 339.44-24 341.87-22.65 342.82-19.8L342.82-19.8 339.32-18.6Q338.97-19.9 338.04-20.6 337.12-21.3 335.99-21.55 334.87-21.8 333.77-21.8L333.77-21.8Q331.52-21.8 330.14-20.93 328.77-20.05 328.77-18.3L328.77-18.3Q328.77-17.35 329.22-16.73 329.67-16.1 330.47-15.7 331.27-15.3 332.37-15.03 333.47-14.75 334.77-14.4L334.77-14.4Q336.22-14.05 337.72-13.53 339.22-13 340.52-12.18 341.82-11.35 342.64-10.08 343.47-8.8 343.47-6.9L343.47-6.9Q343.47-4.7 342.27-3.08 341.07-1.45 338.94-0.55 336.82 0.35 334.02 0.35L334.02 0.35Q330.17 0.35 327.64-1.38 325.12-3.1 324.27-6.45L324.27-6.45ZM347.42-25L351.17-25 351.17-32 354.92-32 354.92-25 361.57-25 361.57-21.5 354.92-21.5 354.92-8.05Q354.92-5.75 355.89-4.7 356.87-3.65 358.39-3.45 359.92-3.25 361.57-3.45L361.57-3.45 361.57-0.2Q359.62 0.25 357.74 0.05 355.87-0.15 354.39-1.07 352.92-2 352.04-3.7 351.17-5.4 351.17-8.05L351.17-8.05 351.17-21.5 347.42-21.5 347.42-25ZM400.26 0L396.81 0 396.51-4.5Q395.46-2.2 393.41-0.93 391.36 0.35 388.21 0.35L388.21 0.35Q385.51 0.35 383.61-0.5 381.71-1.35 380.69-2.93 379.66-4.5 379.66-6.65L379.66-6.65Q379.66-9.8 382.01-11.83 384.36-13.85 388.81-14.3L388.81-14.3 396.51-15.15 396.51-17.15Q396.51-19.25 394.96-20.53 393.41-21.8 390.76-21.8L390.76-21.8Q388.16-21.8 386.44-20.6 384.71-19.4 384.06-17.15L384.06-17.15 380.66-18.35Q381.66-21.65 384.34-23.5 387.01-25.35 390.86-25.35L390.86-25.35Q395.31-25.35 397.79-23.08 400.26-20.8 400.26-16.9L400.26-16.9 400.26 0ZM396.51-11.15L396.51-11.95 388.76-11.05Q386.26-10.75 384.96-9.68 383.66-8.6 383.66-6.85L383.66-6.85Q383.66-5.1 384.94-4.05 386.21-3 388.61-3L388.61-3Q391.36-3 393.11-4.1 394.86-5.2 395.69-7.08 396.51-8.95 396.51-11.15L396.51-11.15ZM426.86-19.95L426.86-19.95 426.46-19.9 426.46-36 430.21-36 430.21 0 426.76 0 426.51-4.65Q425.36-2.55 423.08-1.1 420.81 0.35 417.46 0.35L417.46 0.35Q414.01 0.35 411.43-1.23 408.86-2.8 407.43-5.7 406.01-8.6 406.01-12.5L406.01-12.5Q406.01-16.4 407.43-19.28 408.86-22.15 411.43-23.75 414.01-25.35 417.46-25.35L417.46-25.35Q421.01-25.35 423.36-23.8 425.71-22.25 426.86-19.95ZM410.06-12.5L410.06-12.5Q410.06-8.2 412.26-5.68 414.46-3.15 418.26-3.15L418.26-3.15Q420.61-3.15 422.46-4.25 424.31-5.35 425.38-7.45 426.46-9.55 426.46-12.5L426.46-12.5Q426.46-15.45 425.38-17.53 424.31-19.6 422.46-20.73 420.61-21.85 418.26-21.85L418.26-21.85Q414.51-21.85 412.28-19.33 410.06-16.8 410.06-12.5ZM435.31-25L439.31-25 447.21-4.2 455.16-25 459.11-25 449.11 0 445.21 0 435.31-25ZM474.2 0.35L474.2 0.35Q470.7 0.35 467.98-1.35 465.25-3.05 463.7-6 462.15-8.95 462.15-12.75L462.15-12.75Q462.15-16.4 463.7-19.25 465.25-22.1 467.95-23.73 470.65-25.35 474.1-25.35L474.1-25.35Q477.5-25.35 480.18-23.85 482.85-22.35 484.35-19.7 485.85-17.05 485.75-13.65L485.75-13.65Q485.75-13.1 485.7-12.5 485.65-11.9 485.6-11.2L485.6-11.2 466.25-11.2Q466.35-8.85 467.4-7.05 468.45-5.25 470.18-4.23 471.9-3.2 474.1-3.2L474.1-3.2Q477-3.2 479.03-4.3 481.05-5.4 481.95-7.45L481.95-7.45 485.2-6.15Q483.7-3 480.85-1.33 478 0.35 474.2 0.35ZM466.3-14.45L481.65-14.45Q481.7-16.6 480.73-18.25 479.75-19.9 478-20.85 476.25-21.8 473.95-21.8L473.95-21.8Q471.95-21.8 470.3-20.85 468.65-19.9 467.58-18.23 466.5-16.55 466.3-14.45L466.3-14.45ZM491.9 0L491.9-25 495.35-25 495.55-21.35Q496.55-22.7 497.98-23.65 499.4-24.6 501.13-24.98 502.85-25.35 504.8-25L504.8-25 504.8-21.25Q502.7-21.65 501.03-21.25 499.35-20.85 498.15-19.75 496.95-18.65 496.3-16.98 495.65-15.3 495.65-13.1L495.65-13.1 495.65 0 491.9 0ZM507.75-25L511.5-25 511.5-32 515.25-32 515.25-25 521.9-25 521.9-21.5 515.25-21.5 515.25-8.05Q515.25-5.75 516.22-4.7 517.2-3.65 518.72-3.45 520.25-3.25 521.9-3.45L521.9-3.45 521.9-0.2Q519.95 0.25 518.07 0.05 516.2-0.15 514.72-1.07 513.25-2 512.37-3.7 511.5-5.4 511.5-8.05L511.5-8.05 511.5-21.5 507.75-21.5 507.75-25ZM528.25 0L528.25-25 531.94-25 531.94 0 528.25 0ZM530.14-30L530.14-30Q529-30 528.25-30.75 527.5-31.5 527.5-32.6L527.5-32.6Q527.5-33.75 528.25-34.5 529-35.25 530.14-35.25L530.14-35.25Q531.19-35.25 531.97-34.5 532.75-33.75 532.75-32.6L532.75-32.6Q532.75-31.5 531.97-30.75 531.19-30 530.14-30ZM538.84-6.45L542.44-7.65Q542.74-6.15 543.54-5.18 544.34-4.2 545.62-3.7 546.89-3.2 548.59-3.2L548.59-3.2Q551.24-3.2 552.62-4.23 553.99-5.25 553.99-6.8L553.99-6.8Q553.99-8.1 553.17-8.9 552.34-9.7 550.99-10.23 549.64-10.75 547.99-11.15L547.99-11.15Q546.69-11.45 545.19-11.88 543.69-12.3 542.34-13.05 540.99-13.8 540.14-15 539.29-16.2 539.29-18.15L539.29-18.15Q539.29-20.3 540.47-21.93 541.64-23.55 543.72-24.45 545.79-25.35 548.49-25.35L548.49-25.35Q551.59-25.35 554.02-24 556.44-22.65 557.39-19.8L557.39-19.8 553.89-18.6Q553.54-19.9 552.62-20.6 551.69-21.3 550.57-21.55 549.44-21.8 548.34-21.8L548.34-21.8Q546.09-21.8 544.72-20.93 543.34-20.05 543.34-18.3L543.34-18.3Q543.34-17.35 543.79-16.73 544.24-16.1 545.04-15.7 545.84-15.3 546.94-15.03 548.04-14.75 549.34-14.4L549.34-14.4Q550.79-14.05 552.29-13.53 553.79-13 555.09-12.18 556.39-11.35 557.22-10.08 558.04-8.8 558.04-6.9L558.04-6.9Q558.04-4.7 556.84-3.08 555.64-1.45 553.52-0.55 551.39 0.35 548.59 0.35L548.59 0.35Q544.74 0.35 542.22-1.38 539.69-3.1 538.84-6.45L538.84-6.45ZM564.89 0L564.89-25 568.59-25 568.59 0 564.89 0ZM566.79-30L566.79-30Q565.64-30 564.89-30.75 564.14-31.5 564.14-32.6L564.14-32.6Q564.14-33.75 564.89-34.5 565.64-35.25 566.79-35.25L566.79-35.25Q567.84-35.25 568.61-34.5 569.39-33.75 569.39-32.6L569.39-32.6Q569.39-31.5 568.61-30.75 567.84-30 566.79-30ZM577.04 0L577.04-25 580.49-25 580.69-21.45Q581.89-23.3 583.84-24.33 585.79-25.35 588.39-25.35L588.39-25.35Q591.24-25.35 593.39-24.13 595.54-22.9 596.74-20.48 597.94-18.05 597.94-14.4L597.94-14.4 597.94 0 594.19 0 594.19-13.95Q594.19-17.85 592.51-19.88 590.84-21.9 587.69-21.9L587.69-21.9Q584.44-21.9 582.61-19.75 580.79-17.6 580.79-13.4L580.79-13.4 580.79 0 577.04 0ZM624.13-20.35L624.38-25 627.83-25 627.83-4.6Q627.83 0 625.78 3.28 623.73 6.55 619.83 8.28 615.93 10 610.33 10L610.33 10 609.73 6.55Q616.78 6.45 620.43 3.63 624.08 0.8 624.08-4.6L624.08-4.6 624.08-5.15 624.48-5.05Q623.33-2.85 621.03-1.28 618.73 0.3 615.08 0.35L615.08 0.35Q611.63 0.35 609.06-1.23 606.48-2.8 605.06-5.7 603.63-8.6 603.63-12.5L603.63-12.5Q603.63-16.4 605.06-19.28 606.48-22.15 609.06-23.75 611.63-25.35 615.08-25.35L615.08-25.35Q617.33-25.35 619.08-24.68 620.83-24 622.08-22.88 623.33-21.75 624.13-20.35L624.13-20.35ZM607.68-12.5L607.68-12.5Q607.68-8.2 609.91-5.68 612.13-3.15 615.93-3.15L615.93-3.15Q618.23-3.15 620.08-4.25 621.93-5.35 623.01-7.45 624.08-9.55 624.08-12.5L624.08-12.5Q624.08-15.45 623.01-17.53 621.93-19.6 620.08-20.73 618.23-21.85 615.93-21.85L615.93-21.85Q612.18-21.85 609.93-19.3 607.68-16.75 607.68-12.5ZM668.58 0L665.13 0 664.83-4.5Q663.78-2.2 661.73-0.93 659.68 0.35 656.53 0.35L656.53 0.35Q653.83 0.35 651.93-0.5 650.03-1.35 649-2.93 647.98-4.5 647.98-6.65L647.98-6.65Q647.98-9.8 650.33-11.83 652.68-13.85 657.13-14.3L657.13-14.3 664.83-15.15 664.83-17.15Q664.83-19.25 663.28-20.53 661.73-21.8 659.08-21.8L659.08-21.8Q656.48-21.8 654.75-20.6 653.03-19.4 652.38-17.15L652.38-17.15 648.98-18.35Q649.98-21.65 652.65-23.5 655.33-25.35 659.18-25.35L659.18-25.35Q663.63-25.35 666.1-23.08 668.58-20.8 668.58-16.9L668.58-16.9 668.58 0ZM664.83-11.15L664.83-11.95 657.08-11.05Q654.58-10.75 653.28-9.68 651.98-8.6 651.98-6.85L651.98-6.85Q651.98-5.1 653.25-4.05 654.53-3 656.93-3L656.93-3Q659.68-3 661.43-4.1 663.18-5.2 664-7.08 664.83-8.95 664.83-11.15L664.83-11.15ZM694.83-20.35L695.08-25 698.53-25 698.53-4.6Q698.53 0 696.48 3.28 694.43 6.55 690.53 8.28 686.63 10 681.03 10L681.03 10 680.43 6.55Q687.48 6.45 691.13 3.63 694.78 0.8 694.78-4.6L694.78-4.6 694.78-5.15 695.18-5.05Q694.03-2.85 691.73-1.28 689.43 0.3 685.78 0.35L685.78 0.35Q682.33 0.35 679.75-1.23 677.18-2.8 675.75-5.7 674.33-8.6 674.33-12.5L674.33-12.5Q674.33-16.4 675.75-19.28 677.18-22.15 679.75-23.75 682.33-25.35 685.78-25.35L685.78-25.35Q688.03-25.35 689.78-24.68 691.53-24 692.78-22.88 694.03-21.75 694.83-20.35L694.83-20.35ZM678.38-12.5L678.38-12.5Q678.38-8.2 680.6-5.68 682.83-3.15 686.63-3.15L686.63-3.15Q688.93-3.15 690.78-4.25 692.63-5.35 693.7-7.45 694.78-9.55 694.78-12.5L694.78-12.5Q694.78-15.45 693.7-17.53 692.63-19.6 690.78-20.73 688.93-21.85 686.63-21.85L686.63-21.85Q682.88-21.85 680.63-19.3 678.38-16.75 678.38-12.5ZM716.67 0.35L716.67 0.35Q713.17 0.35 710.45-1.35 707.72-3.05 706.17-6 704.62-8.95 704.62-12.75L704.62-12.75Q704.62-16.4 706.17-19.25 707.72-22.1 710.42-23.73 713.12-25.35 716.57-25.35L716.57-25.35Q719.97-25.35 722.65-23.85 725.32-22.35 726.82-19.7 728.32-17.05 728.22-13.65L728.22-13.65Q728.22-13.1 728.17-12.5 728.12-11.9 728.07-11.2L728.07-11.2 708.72-11.2Q708.82-8.85 709.87-7.05 710.92-5.25 712.65-4.23 714.37-3.2 716.57-3.2L716.57-3.2Q719.47-3.2 721.5-4.3 723.52-5.4 724.42-7.45L724.42-7.45 727.67-6.15Q726.17-3 723.32-1.33 720.47 0.35 716.67 0.35ZM708.77-14.45L724.12-14.45Q724.17-16.6 723.2-18.25 722.22-19.9 720.47-20.85 718.72-21.8 716.42-21.8L716.42-21.8Q714.42-21.8 712.77-20.85 711.12-19.9 710.05-18.23 708.97-16.55 708.77-14.45L708.77-14.45ZM734.37 0L734.37-25 737.82-25 738.02-21.45Q739.22-23.3 741.17-24.33 743.12-25.35 745.72-25.35L745.72-25.35Q748.57-25.35 750.72-24.13 752.87-22.9 754.07-20.48 755.27-18.05 755.27-14.4L755.27-14.4 755.27 0 751.52 0 751.52-13.95Q751.52-17.85 749.85-19.88 748.17-21.9 745.02-21.9L745.02-21.9Q741.77-21.9 739.95-19.75 738.12-17.6 738.12-13.4L738.12-13.4 738.12 0 734.37 0ZM773.17 0.35L773.17 0.35Q769.52 0.35 766.77-1.25 764.02-2.85 762.49-5.73 760.97-8.6 760.97-12.4L760.97-12.4Q760.97-16.25 762.49-19.18 764.02-22.1 766.77-23.73 769.52-25.35 773.17-25.35L773.17-25.35Q777.02-25.35 779.92-23.58 782.82-21.8 784.12-18.65L784.12-18.65 780.67-17.45Q779.92-19.45 777.94-20.63 775.97-21.8 773.37-21.8L773.37-21.8Q770.82-21.8 768.94-20.65 767.07-19.5 766.04-17.4 765.02-15.3 765.02-12.45L765.02-12.45Q765.02-8.25 767.27-5.73 769.52-3.2 773.27-3.2L773.27-3.2Q775.82-3.2 777.82-4.35 779.82-5.5 780.77-7.45L780.77-7.45 784.17-6.25Q782.82-3.15 779.92-1.4 777.02 0.35 773.17 0.35ZM799.02-4.8L806.77-25 810.67-25 796.37 10 792.77 10 797.02-0.35 786.92-25 791.02-25 799.02-4.8Z" opacity="1" transform="matrix(1,0,0,1,0,0)" fill="#000000" class="slogan-text-1" data-fill-palette-color="secondary" id="text-1"></path></svg></g></svg></g></svg></g></svg></g><g transform="matrix(1,0,0,1,405.6372810071526,0)"><svg viewBox="0 0 91.44849928469552 91.44849928469552" height="91.44849928469552" width="91.44849928469552"><g data-palette-color="#585855"><rect width="24.995923137816774" height="91.44849928469552" fill="#000000" stroke="transparent" data-fill-palette-color="accent" x="0" fill-opacity="1"></rect><rect width="24.995923137816774" height="91.44849928469552" fill="#000000" stroke="transparent" data-fill-palette-color="accent" x="30.482833094898506" fill-opacity="0.75"></rect><rect width="24.995923137816774" height="91.44849928469552" fill="#000000" stroke="transparent" data-fill-palette-color="accent" x="60.96566618979701" fill-opacity="0.5"></rect></g></svg></g></svg></g><defs></defs></svg><rect width="395.5199999999999" height="72.7635186342423" fill="none" stroke="none" visibility="hidden"></rect></g></svg></g></svg>